# xmcd
#
# Track frame offsets:
#	150
#	20014
#	39922
#	56521
#	74564
#	90528
#	105687
#	126399
#	147699
#	166594
#	190698
#	210620
#	225047
#	246492
#	267094
#
# Disc length: 3745 seconds
#
# Revision: 1
# Processed by: cddbd v1.5PL3 Copyright (c) Steve Scherf et al.
# Submitted via: EasyCDDAExtractor 6.5.7.1
#
DISCID=cf0e9f0f
DTITLE=김현식 - Forever Best 001 김현식
DYEAR=1900
DGENRE=R&B
TTITLE0=사랑했어요
TTITLE1=어둠 그 별빛
TTITLE2=당신의 모습
TTITLE3=바람인줄 알았는데
TTITLE4=가리워진 길
TTITLE5=떠나가 버렸네
TTITLE6=비처럼 음악처럼
TTITLE7=언제나 그대 내 곁에
TTITLE8=여름밤의 꿈
TTITLE9=넋두리
TTITLE10=내사랑 내곁에
TTITLE11=추억 만들기
TTITLE12=골목길
TTITLE13=한밤중에
TTITLE14=한국사람
EXTD=
EXTT0=
EXTT1=
EXTT2=
EXTT3=
EXTT4=
EXTT5=
EXTT6=
EXTT7=
EXTT8=
EXTT9=
EXTT10=
EXTT11=
EXTT12=
EXTT13=
EXTT14=
PLAYORDER=
